<svg id="Capa_1" enable-background="new 0 0 512 512" height="100" viewBox="0 0 512 512" width="100" xmlns="http://www.w3.org/2000/svg"><g><path d="m256 0c-140.959 0-256 115.05-256 256 0 140.959 115.05 256 256 256 140.959 0 256-115.05 256-256 0-140.959-115.05-256-256-256zm225.49 241h-91.334c-4.159-36.948-23.526-70.789-54.309-93.3l45.856-79.424c56.542 37.985 95.051 100.814 99.787 172.724zm-225.49 120c-57.897 0-105-47.103-105-105 0-52.085 39.202-96.595 91.186-103.533 4.928-.658 9.209-3.714 11.432-8.16l2.382-4.764 2.382 4.764c2.223 4.446 6.504 7.502 11.432 8.16 51.984 6.938 91.186 51.448 91.186 103.533 0 57.897-47.103 105-105 105zm99.743-307.76-45.924 79.542c-8.961-3.894-18.348-6.849-28.027-8.737l-12.376-24.753c-2.54-5.082-7.734-8.292-13.416-8.292s-10.876 3.21-13.417 8.292l-12.376 24.753c-9.678 1.889-19.066 4.844-28.027 8.737l-45.923-79.542c30.101-14.867 63.96-23.24 99.743-23.24s69.642 8.373 99.743 23.24zm-225.446 15.036 45.856 79.424c-30.742 22.481-50.144 56.303-54.309 93.3h-91.334c4.736-71.91 43.245-134.739 99.787-172.724zm-99.787 202.724h91.328c4.255 38.313 24.604 71.836 54.119 93.64l-45.659 79.084c-56.543-37.985-95.052-100.814-99.788-172.724zm125.747 187.759 45.657-79.081c16.569 7.274 34.862 11.322 54.086 11.322s37.517-4.048 54.085-11.321l45.657 79.081c-30.1 14.867-63.959 23.24-99.742 23.24s-69.642-8.373-99.743-23.241zm225.446-15.035-45.659-79.084c29.515-21.804 49.864-55.328 54.119-93.64h91.328c-4.737 71.91-43.246 134.739-99.788 172.724z"/><path d="m256 181c-24.813 0-45 20.187-45 45 0 8.284 6.716 15 15 15s15-6.716 15-15c0-8.271 6.729-15 15-15s15 6.729 15 15c0 6.322-3.994 12-9.94 14.129-11.998 4.298-20.06 15.748-20.06 28.489v2.382c0 8.284 6.716 15 15 15s15-6.716 15-15v-2.381c0-.106.075-.21.177-.247 17.838-6.39 29.823-23.417 29.823-42.372 0-24.813-20.187-45-45-45z"/><circle cx="256" cy="316" r="15"/></g></svg>